/* XPM */
static char *_1763_01b9229abc1ba65afcfb2bc485284c926662c51e7d7f88c8c085ccbb2a4c18ff[] = {
/* columns rows colors chars-per-pixel */
"64 64 256 2 ",
"   c black",
".  c #0000A8",
"X  c #00A800",
"o  c #00A8A8",
"O  c #A80000",
"+  c #A800A8",
"@  c #A85400",
"#  c gray66",
"$  c gray33",
"%  c #5454FC",
"&  c #54FC54",
"*  c #54FCFC",
"=  c #FC5454",
"-  c #FC54FC",
";  c #FCFC54",
":  c gray99",
">  c #ECECEC",
",  c gainsboro",
"<  c #D0D0D0",
"1  c #C0C0C0",
"2  c #B4B4B4",
"3  c gray66",
"4  c #989898",
"5  c gray55",
"6  c #7C7C7C",
"7  c gray44",
"8  c #646464",
"9  c gray33",
"0  c #484848",
"q  c gray22",
"w  c #2C2C2C",
"e  c #202020",
"r  c #FC0000",
"t  c #EC0000",
"y  c #E00000",
"u  c #D40000",
"i  c #C80000",
"p  c #BC0000",
"a  c #B00000",
"s  c #A40000",
"d  c #980000",
"f  c #880000",
"g  c #7C0000",
"h  c #700000",
"j  c #640000",
"k  c #580000",
"l  c #4C0000",
"z  c #400000",
"x  c #FCD8D8",
"c  c #FCB8B8",
"v  c #FC9C9C",
"b  c #FC7C7C",
"n  c #FC5C5C",
"m  c #FC4040",
"M  c #FC2020",
"N  c #FC0000",
"B  c #FCA85C",
"V  c #FC9840",
"C  c #FC8820",
"Z  c #FC7800",
"A  c #E46C00",
"S  c #CC6000",
"D  c #B45400",
"F  c #9C4C00",
"G  c #FCFCD8",
"H  c #FCFCB8",
"J  c #FCFC9C",
"K  c #FCFC7C",
"L  c #FCF85C",
"P  c #FCF440",
"I  c #FCF420",
"U  c #FCF400",
"Y  c #E4D800",
"T  c #CCC400",
"R  c #B4AC00",
"E  c #9C9C00",
"W  c #848400",
"Q  c #706C00",
"!  c #585400",
"~  c #404000",
"^  c #D0FC5C",
"/  c #C4FC40",
"(  c #B4FC20",
")  c #A0FC00",
"_  c #90E400",
"`  c #80CC00",
"'  c #74B400",
"]  c #609C00",
"[  c #D8FCD8",
"{  c #BCFCB8",
"}  c #9CFC9C",
"|  c #80FC7C",
" . c #60FC5C",
".. c #40FC40",
"X. c #20FC20",
"o. c #00FC00",
"O. c #00FC00",
"+. c #00EC00",
"@. c #00E000",
"#. c #00D400",
"$. c #04C800",
"%. c #04BC00",
"&. c #04B000",
"*. c #04A400",
"=. c #049800",
"-. c #048800",
";. c #047C00",
":. c #047000",
">. c #046400",
",. c #045800",
"<. c #044C00",
"1. c #044000",
"2. c #D8FCFC",
"3. c #B8FCFC",
"4. c #9CFCFC",
"5. c #7CFCF8",
"6. c #5CFCFC",
"7. c #40FCFC",
"8. c #20FCFC",
"9. c #00FCFC",
"0. c #00E4E4",
"q. c #00CCCC",
"w. c #00B4B4",
"e. c #009C9C",
"r. c #008484",
"t. c #007070",
"y. c #005858",
"u. c #004040",
"i. c #5CBCFC",
"p. c #40B0FC",
"a. c #20A8FC",
"s. c #009CFC",
"d. c #008CE4",
"f. c #007CCC",
"g. c #006CB4",
"h. c #005C9C",
"j. c #D8D8FC",
"k. c #B8BCFC",
"l. c #9C9CFC",
"z. c #7C80FC",
"x. c #5C60FC",
"c. c #4040FC",
"v. c #2024FC",
"b. c #0004FC",
"n. c #0000FC",
"m. c #0000EC",
"M. c #0000E0",
"N. c #0000D4",
"B. c #0000C8",
"V. c #0000BC",
"C. c #0000B0",
"Z. c #0000A4",
"A. c #000098",
"S. c #000088",
"D. c #00007C",
"F. c #000070",
"G. c #000064",
"H. c #000058",
"J. c #00004C",
"K. c #000040",
"L. c #282828",
"P. c #FCE034",
"I. c #FCD424",
"U. c #FCCC18",
"Y. c #FCC008",
"T. c #FCB400",
"R. c #B420FC",
"E. c #A800FC",
"W. c #9800E4",
"Q. c #8000CC",
"!. c #7400B4",
"~. c #60009C",
"^. c #500084",
"/. c #440070",
"(. c #340058",
"). c #280040",
"_. c #FCD8FC",
"`. c #FCB8FC",
"'. c #FC9CFC",
"]. c #FC7CFC",
"[. c #FC5CFC",
"{. c #FC40FC",
"}. c #FC20FC",
"|. c #FC00FC",
" X c #E000E4",
".X c #C800CC",
"XX c #B400B4",
"oX c #9C009C",
"OX c #840084",
"+X c #6C0070",
"@X c #580058",
"#X c #400040",
"$X c #FCE8DC",
"%X c #FCE0D0",
"&X c #FCD8C4",
"*X c #FCD4BC",
"=X c #FCCCB0",
"-X c #FCC4A4",
";X c #FCBC9C",
":X c #FCB890",
">X c #FCB080",
",X c #FCA470",
"<X c #FC9C60",
"1X c #F0945C",
"2X c #E88C58",
"3X c #DC8854",
"4X c #D08050",
"5X c #C87C4C",
"6X c #BC7848",
"7X c #B47044",
"8X c #A86840",
"9X c #A0643C",
"0X c #9C6038",
"qX c #905C34",
"wX c #885830",
"eX c #80502C",
"rX c #744C28",
"tX c #6C4824",
"yX c #5C4020",
"uX c #543C1C",
"iX c #483818",
"pX c #403018",
"aX c #382C14",
"sX c #28200C",
"dX c #600064",
"fX c #006464",
"gX c #006060",
"hX c #00001C",
"jX c #00002C",
"kX c #302410",
"lX c #480048",
"zX c #500050",
"xX c #000034",
"cX c gray11",
"vX c #4C4C4C",
"bX c gray36",
"nX c gray25",
"mX c gray19",
"MX c #343434",
"NX c #D8F4F4",
"BX c #B8E8E8",
"VX c #9CDCDC",
"CX c #74C8C8",
"ZX c #48C0C0",
"AX c #20B4B4",
"SX c #20B0B0",
"DX c #00A4A4",
"FX c #009898",
"GX c #008C8C",
"HX c #008484",
"JX c #007C7C",
"KX c #007878",
"LX c #007474",
"PX c #007070",
"IX c #006C6C",
"UX c #980088",
/* pixels */
"B.B.B.B.B.M.m.n.n.M.M.G.  Z.V.m.n.n.N.n.M.n.n.n.n.n.M.n.n.n.V.G.  N.V.n.M.n.n.n.n.m.n.m.m.N.N.G.  N.M.N.n.M.S.  G.A.C.M.B.n.M.V.",
"V.V.B.B.B.M.n.N.m.M.. H.  H.C.m.B.. V.N.B.m.n.m.M.M.n.n.n.V.S.jX  . B.n.n.m.n.n.M.V.V.C.V.M.V.H.  Z.V.N.n.N.S.  J.Z.S.C.N.n.B.A.",
"B.V.V.B.N.C.C.C.V.M.V.A.  D.N.n.n.B.M.B.A.B.N.n.n.n.n.n.M.Z.S.K.  C.N.n.n.n.N.M.. C.N.n.n.n.V.D.  A.N.n.m.C.S.  Z.m.V.V.M.B.S.D.",
"N.V.V.V.N.M.V.. S.. A.D.  S.V.m.m.. M.M.B.M.N.m.M.m.N.A.S.D.Z.D.  V.M.m.N.N.B.N.V.M.N.N.C.M.A.A.  . B.n.N.M.S.  S.B.N.M.n.Z.Z.D.",
"C.V.V.B.. Z.F.A.. C.A.G.  . . N.N.M.M.m.M.M.B.C.. A.F.D.. V.M.C.  N.M.n.n.B.C.Z.B.M.n.m.M.M.F.S.  S.C.N.B.B.A.  G.C.C.N.B.A.A.F.",
"C.G.S.G.D.F.D.B.V.A.G.G.  . V.n.m.M.M.n.M.n.N.C.N.V.B.M.n.n.M.D.  V.N.M.V.A.M.m.M.m.M.N.Z.V.S.S.  A.B.N.M.. D.  F.S.C.. A.G.J.G.",
"S.D.F.D.S.A.C.B.V.A.J.J.  F.C.Z.B.M.N.N.V.M.B.M.M.M.M.M.M.B.N.F.  C.A.Z.C.B.B.. S.V.. C.Z.S.F.F.  J.B.S.. S.F.  K.K.S.D.F.G.S.S.",
"C.Z.G.. C.M.N.M.C.Z.J.H.  D.m.n.n.B.C.M.m.m.m.m.m.B.N.m.N.V.V.H.  F.H.S.D.D.G.G.F.S.A.G.F.D.Z.F.  J.F.D.S.F.K.  J.G.F.F.Z.D.A.D.",
"B.C.A.V.N.N.A.N.S.A.J.J.  A.B.V.C.Z.M.N.M.m.C.N.m.N.N.m.. M.V.G.                                                F.D.G.S.. V.V.D.",
"C.A.A.A.C.. C.B.D.A.H.K.  H.Z.N.M.V.n.B.N.N.B.m.m.N.M.m.B.B.A.G.  . S.V.C.A.V.S.S.H.  A.. A.J.J.A.C.A.A.A.F.jX  J.D.S.A.A.Z.A.D.",
"M.V.A.V.M.V.A.. A.Z.H.H.  J.D.V.V.Z.N.. N.m.N.M.M.B.B.B.V.. D.H.  F.C.m.N.C.V.C.N.S.  S.V.B.Z.D.A.M.N.B.B.S.jX  G.A.Z.V.C.C.A.A.",
"C.. A.. C.S.Z.. S.S.F.S.                                                                                m.A.D.  F.. . M.V.C.A.S.",
"S.Z.A.. S.S.S.A.S.F.F.K.                                  6 1 > , > # 6                                 N.. F.  F.. V.B.S.A.S.H.",
"G.H.G.H.F.F.H.D.G.J.J.hX                            5 > > > > > > > > > > # , # 6                       V.. G.  F.S.A.F.J.J.K.H.",
"G.G.J.G.G.K.G.F.H.J.jXhX                        , > > > > > , 6 , > > > > > , > > > 6                   A.A.S.  G.H.H.J.jXH.H.A.",
"                                            6 > > > > > > > # > > > > > > > > 6 > > > 4                 F.S.A.                  ",
"A.A.A.A.A.A.. S.Z.. Z.A.                    > > > > > > > < > > > > > > > > > > 4 > > > #               S.S.A.  S.A.S.A.G.F.F.S.",
"Z.A.A.A.Z.V.C.A.Z.S.D.V.                  > > > > > > > # > > > > > > > > > > > 4 , > > > 6             . A.S.  D.. . . F.C.. S.",
"B.Z.. Z.B.C.Z.. . . B.V.                5 > > > > > > 1 > > > > > > > > > > > > > # > > > >             A.F.G.  F.V.Z.. S.C.D.Z.",
"A.S.Z.S.A.Z.Z.C.V.. . G.                > > > > > > > > 5 > > > > > > > > > > > > < > > > > 5           D.S.A.  D.A.Z.Z.C.Z.Z.Z.",
". . C.C.C.C.A.. A.D.D.H.                > > > > > > > > > > > > > > > > > > > > < > > > > > >           H.G.F.  F.Z.Z.A.Z.S.C.Z.",
"D.D.G.S.D.S.D.D.J.H.J.K.              # > > > > > > > 2 > > > > > > > > > > > > > $ > > > > > #         F.H.D.  F.D.F.D.D.H.A.D.",
"F.S.S.A.F.D.H.F.H.D.G.G.              > > > > > > > > , > > > > > > > > > > > > < 1 > > > > > >         S.J.G.  F.H.H.H.G.H.G.H.",
"                                      > > > > > > > > > > > > > > > > # > > > > , > > > > > > > 6       S.K.H.                  ",
"  K.F.K.G.G.G.G.F.K.  H.              6 > # > > > 4 > > > > < > > > > 1 > > > > > > > > > > > > 5       S.J.H.  H.G.D.A.. A.S.H.",
"  F.A.S.Z.Z.S.D.D.K.  F.      > > > 2 4 vX> > > > > 2 > , > > > # > > 1 > , < > > > > > > > > > 6       A.J.K.  J.G.A.C.A.S.D.K.",
"  D.F.S.D.A.A.S.D.H.  J.    4 > 2 < # 1 > 1 6 6 q > > > > vXbX1 > < > > 1 > > 6 > > 1 > > > > > 6       S.J.hX  jXD.A.A.F.S.S.J.",
"  S.A.A.S.. . S.F.J.  F.    4 > > > > < > 4 7 cX  > > > # 1 0     > > > 0 > > , > > > > # > > 4         G.J.jX  K.S.A.D.A.Z.D.K.",
"  S.A.A.S.S.F.G.F.J.  J.    > > > > > 5 6 1 cX    0 > > 4 4         > > # > > > > > > > 1 # 2 4 6 6     H.F.K.  jXF.Z.Z.Z.F.F.J.",
"  H.. G.D.. Z.F.D.jX  H.    > > > > < > 1 >       > > > > < mX      # > > L.> > > > < > > 4 2 6 > > 6   F.G.J.  jXD.A.D.A.D.F.J.",
"  H.A.F.. D.H.F.F.jX  H.  4 > > > > # > 1 < q 7 > > , > > > > > 4   L.> > > $ 6 < > > > > > q < > > 1   G.G.G.  K.H.G.F.H.H.J.H.",
"  D.Z.A.D.S.S.S.K.jX  G.  < > > > > 1 > > > > > > , < cX> > > > > > > > > > > > > > > > > 6 > > > > <   H.H.jX  jXjXH.J.K.J.K.K.",
"  F.S.D.D.F.F.H.K.H.  F.  # > > 0 > < > > > > > > <     # > > > > > > > > > , vXL.vXbX> 6 > > > > >                             ",
"  K.H.H.K.K.J.K.J.J.  K.    > < 4 > > 6 > 4 7 > < >       > > > > > > > > 6 q q > > L.> > > bX1 > > #   K.H.H.F.F.F.  K.J.H.G.G.",
"  jXjXK.K.K.J.J.J.hX  jX    6   > > > 8 > 2 > , , cX$     > > > < 1 > > > bXq > > > # > > > > 8 > > >   D.S.S.S.F.H.  G.G.S.D.G.",
"                            7 L.2 > > > 4 , > 1 > q < >   > > # > > 5 < bX> 0 > > q > > > > > # < > >   A.S.S.S.D.J.  G.G.S.D.F.",
"  H.J.H.K.G.G.F.G.F.G.J.  4 > > > L.# 2 6 > > > > > > > , > > > > > > mX> > < > > $ > > > > > cX> > >   A.A.S.A.G.jX  F.F.D.S.G.",
"  G.G.F.H.G.S.F.D.A.D.F.  1 > > > 6 > > vX> 6 > > > > > > > > > > > > q > > > > > mX> > > > > < > > 6   S.F.F.D.H.jX  G.G.F.D.F.",
"  J.K.H.G.J.J.H.F.F.H.G.  4 > > > > > > 0 > 4 , > > > > > > > > > > > cX> > > > > vX# < > # < > > <     S.F.G.F.G.jX  K.G.A.D.F.",
"  J.J.G.F.H.K.jXJ.G.G.F.  6 > > > q < > 1 > 7 > > 4 4 8 > 6 , # > > > cX> > > > 6 > > 8 7 > 5 5 6 > 7   H.H.G.D.F.jX  F.G.F.H.F.",
"  H.F.S.S.F.H.K.J.D.F.S.    # > 4 > > > > , vX> > > > > , > > > 2 < > L.> > > > 8 > > > > > > , > > 6   H.S.D.S.J.jX  J.K.S.D.F.",
"  H.G.F.F.G.F.K.K.J.J.F.      4 , 6 2 # > # , 2 # 2 4 > 1 > # > > < 4 q > > > > # > > > > > > > < >     H.F.H.J.jXK.  F.D.A.H.G.",
"  K.J.H.J.J.H.H.H.H.H.H.        > > <   6 4 > < > > > > > > , > > , 4 > > > > > , 1 > > > > > > 1 >     J.H.K.jXjXK.  J.G.F.D.G.",
"  K.K.J.J.J.K.K.G.G.H.J.        > > >     2 > > > # 1 < 1 > , < < 2 > > > > > > 6 > 6 > < # > < < 4     H.K.jXjXjXH.  G.H.H.G.G.",
"  H.H.G.F.H.J.K.H.J.H.J.      7 > > 7     2 > > > > > > > > > > > > > > > > > 1   # > # , > > > bX      H.F.H.K.K.jX  K.H.D.S.G.",
"  K.H.J.K.K.K.jXK.K.J.K.        6 6       4 > > > > > > > > > > > > > > > > 1       6 > > > > > >       H.H.J.K.jXhX  J.G.H.G.J.",
"  jXjXK.jXK.K.jXK.jXjXjX                  7 > > > 1 > > > > > > > > > > , 6           4 > > > >         jXK.jXjXhX    hXjXhXjXjX",
"                                            6 > > > > > > > > > > > > 5                                                         ",
"J.K.K.K.J.J.K.  H.S.G.F.                        5 2 6 > > > > > 5                                       jXK.H.J.K.K.J.jXJ.G.H.H.",
"F.S.G.S.F.G.K.  F.S.G.D.                              6 4 # 6                                           J.J.G.H.G.F.D.F.G.F.H.G.",
"F.S.G.S.F.G.hX  H.G.H.K.                                                                                G.H.J.J.H.G.H.J.G.F.D.F.",
"F.F.D.F.F.G.jX  H.H.J.J.H.K.K.J.H.J.J.jXJ.  K.K.H.H.G.G.J.jX  H.F.D.D.D.K.  H.H.D.G.G.H.K.hXjX  jXK.J.G.G.F.J.J.J.J.H.H.G.G.F.F.",
"D.F.F.F.D.F.K.  G.J.J.K.K.jXJ.J.J.J.jXjXjX  jXH.G.F.G.K.jXjX  H.F.F.D.G.K.  J.H.D.G.H.H.J.hXjX  jXG.F.F.G.F.G.G.F.G.F.F.G.F.D.F.",
"H.J.G.J.H.G.K.  K.jXjXjXK.K.J.K.J.J.H.jXhX  K.G.G.G.H.K.K.K.  J.F.G.F.H.J.  H.F.G.H.K.J.K.hXhX  K.H.G.H.H.F.G.G.F.F.F.D.G.F.D.F.",
"D.D.G.D.D.H.jX                              J.H.J.F.G.jXK.jX  G.F.G.D.H.K.  K.F.F.G.J.J.K.hXjX  K.J.G.J.J.G.G.H.G.F.F.G.F.G.G.F.",
"H.G.D.G.H.J.K.  hXjXK.J.J.H.K.J.K.J.K.jXjX  G.H.J.G.J.jXJ.jX  H.F.F.D.H.K.  J.H.J.jXK.K.jXjXjX  jXK.H.H.J.K.J.J.J.K.K.G.K.K.J.H.",
"K.J.H.J.K.jXjX  jXH.G.F.G.F.H.G.H.G.J.jXK.  H.J.H.J.K.K.J.K.hXH.G.G.F.H.K.  jXjXjXK.K.G.H.jXjX  K.jXK.J.J.K.H.H.F.G.F.H.H.J.J.K.",
"J.K.K.K.J.J.J.  K.H.H.H.H.G.G.H.F.J.K.jXK.  K.K.K.K.J.G.H.J.  J.J.F.D.G.K.  jXjXH.H.H.G.H.jXjX  jXjXJ.J.K.G.S.D.H.H.G.F.G.G.G.G.",
"H.G.F.G.H.K.jX  J.J.J.J.J.H.J.J.G.J.K.jXK.  K.jXH.G.F.G.J.J.  J.G.F.F.H.jX  K.H.H.G.F.G.H.jXjX  J.H.H.G.F.F.F.G.F.F.D.F.G.G.F.F.",
"H.G.J.G.H.jXjX  jXjXjXjXK.K.H.J.H.J.J.jXK.  K.J.D.F.D.G.H.K.  J.G.G.F.H.jX  H.D.D.F.G.F.G.K.jX  K.G.D.F.H.G.F.F.H.H.F.G.J.G.G.G.",
"G.D.H.D.G.J.J.  hXhXjXK.K.J.J.K.J.K.jXhXjX  J.G.G.H.G.G.H.jX  K.H.G.H.K.jX  J.G.G.G.D.G.K.jXjX  G.G.G.H.H.G.G.H.J.H.H.H.J.H.H.H.",
"G.F.H.F.G.J.K.  jXjXK.J.J.K.K.K.J.jXjXjXK.  H.K.J.H.J.J.J.jX  J.H.D.H.J.jX  H.H.J.jXK.jXjXjXK.  jXJ.F.H.J.K.J.J.K.J.H.J.K.K.J.J.",
"jXJ.G.J.jXjXjX  jXjXJ.J.J.K.K.K.K.K.jXjXjX  K.jXK.K.jXK.jXhX  jXH.H.jXjXjX  K.K.jXjXK.K.K.jXjX  jXK.J.J.K.K.K.K.jXK.jXjXjXK.K.K.",
"jXjXK.jXjXJ.J.  J.K.jXjXhXhXhXjXjXjXjXjXhX                    hXjXjXjXjXK.                      jXhXhXjXjXjXjXjXjXjXhXjXjXjXjXjX"
};
