/* XPM */
static char *_3817_3572e856e7b068ffa56375e03c3be14f817313e1b9f8e54dcc75750e49d97097[] = {
/* columns rows colors chars-per-pixel */
"64 64 256 2 ",
"   c black",
".  c #0000A8",
"X  c #00A800",
"o  c #00A8A8",
"O  c #A80000",
"+  c #A800A8",
"@  c #A85400",
"#  c gray66",
"$  c gray33",
"%  c #5454FC",
"&  c #54FC54",
"*  c #54FCFC",
"=  c #FC5454",
"-  c #FC54FC",
";  c #FCFC54",
":  c gray99",
">  c #ECECEC",
",  c gainsboro",
"<  c #D0D0D0",
"1  c #C0C0C0",
"2  c #B4B4B4",
"3  c gray66",
"4  c #989898",
"5  c gray55",
"6  c #7C7C7C",
"7  c gray44",
"8  c #646464",
"9  c gray33",
"0  c #484848",
"q  c gray22",
"w  c #2C2C2C",
"e  c #202020",
"r  c #FC0000",
"t  c #EC0000",
"y  c #E00000",
"u  c #D40000",
"i  c #C80000",
"p  c #BC0000",
"a  c #B00000",
"s  c #A40000",
"d  c #980000",
"f  c #880000",
"g  c #7C0000",
"h  c #700000",
"j  c #640000",
"k  c #580000",
"l  c #4C0000",
"z  c #400000",
"x  c #FCD8D8",
"c  c #FCB8B8",
"v  c #FC9C9C",
"b  c #FC7C7C",
"n  c #FC5C5C",
"m  c #FC4040",
"M  c #FC2020",
"N  c #FC0000",
"B  c #FCA85C",
"V  c #FC9840",
"C  c #FC8820",
"Z  c #FC7800",
"A  c #E46C00",
"S  c #CC6000",
"D  c #B45400",
"F  c #9C4C00",
"G  c #FCFCD8",
"H  c #FCFCB8",
"J  c #FCFC9C",
"K  c #FCFC7C",
"L  c #FCF85C",
"P  c #FCF440",
"I  c #FCF420",
"U  c #FCF400",
"Y  c #E4D800",
"T  c #CCC400",
"R  c #B4AC00",
"E  c #9C9C00",
"W  c #848400",
"Q  c #706C00",
"!  c #585400",
"~  c #404000",
"^  c #D0FC5C",
"/  c #C4FC40",
"(  c #B4FC20",
")  c #A0FC00",
"_  c #90E400",
"`  c #80CC00",
"'  c #74B400",
"]  c #609C00",
"[  c #D8FCD8",
"{  c #BCFCB8",
"}  c #9CFC9C",
"|  c #80FC7C",
" . c #60FC5C",
".. c #40FC40",
"X. c #20FC20",
"o. c #00FC00",
"O. c #00FC00",
"+. c #00EC00",
"@. c #00E000",
"#. c #00D400",
"$. c #04C800",
"%. c #04BC00",
"&. c #04B000",
"*. c #04A400",
"=. c #049800",
"-. c #048800",
";. c #047C00",
":. c #047000",
">. c #046400",
",. c #045800",
"<. c #044C00",
"1. c #044000",
"2. c #D8FCFC",
"3. c #B8FCFC",
"4. c #9CFCFC",
"5. c #7CFCF8",
"6. c #5CFCFC",
"7. c #40FCFC",
"8. c #20FCFC",
"9. c #00FCFC",
"0. c #00E4E4",
"q. c #00CCCC",
"w. c #00B4B4",
"e. c #009C9C",
"r. c #008484",
"t. c #007070",
"y. c #005858",
"u. c #004040",
"i. c #5CBCFC",
"p. c #40B0FC",
"a. c #20A8FC",
"s. c #009CFC",
"d. c #008CE4",
"f. c #007CCC",
"g. c #006CB4",
"h. c #005C9C",
"j. c #D8D8FC",
"k. c #B8BCFC",
"l. c #9C9CFC",
"z. c #7C80FC",
"x. c #5C60FC",
"c. c #4040FC",
"v. c #2024FC",
"b. c #0004FC",
"n. c #0000FC",
"m. c #0000EC",
"M. c #0000E0",
"N. c #0000D4",
"B. c #0000C8",
"V. c #0000BC",
"C. c #0000B0",
"Z. c #0000A4",
"A. c #000098",
"S. c #000088",
"D. c #00007C",
"F. c #000070",
"G. c #000064",
"H. c #000058",
"J. c #00004C",
"K. c #000040",
"L. c #282828",
"P. c #FCE034",
"I. c #FCD424",
"U. c #FCCC18",
"Y. c #FCC008",
"T. c #FCB400",
"R. c #B420FC",
"E. c #A800FC",
"W. c #9800E4",
"Q. c #8000CC",
"!. c #7400B4",
"~. c #60009C",
"^. c #500084",
"/. c #440070",
"(. c #340058",
"). c #280040",
"_. c #FCD8FC",
"`. c #FCB8FC",
"'. c #FC9CFC",
"]. c #FC7CFC",
"[. c #FC5CFC",
"{. c #FC40FC",
"}. c #FC20FC",
"|. c #FC00FC",
" X c #E000E4",
".X c #C800CC",
"XX c #B400B4",
"oX c #9C009C",
"OX c #840084",
"+X c #6C0070",
"@X c #580058",
"#X c #400040",
"$X c #FCE8DC",
"%X c #FCE0D0",
"&X c #FCD8C4",
"*X c #FCD4BC",
"=X c #FCCCB0",
"-X c #FCC4A4",
";X c #FCBC9C",
":X c #FCB890",
">X c #FCB080",
",X c #FCA470",
"<X c #FC9C60",
"1X c #F0945C",
"2X c #E88C58",
"3X c #DC8854",
"4X c #D08050",
"5X c #C87C4C",
"6X c #BC7848",
"7X c #B47044",
"8X c #A86840",
"9X c #A0643C",
"0X c #9C6038",
"qX c #905C34",
"wX c #885830",
"eX c #80502C",
"rX c #744C28",
"tX c #6C4824",
"yX c #5C4020",
"uX c #543C1C",
"iX c #483818",
"pX c #403018",
"aX c #382C14",
"sX c #28200C",
"dX c #600064",
"fX c #006464",
"gX c #006060",
"hX c #00001C",
"jX c #00002C",
"kX c #302410",
"lX c #480048",
"zX c #500050",
"xX c #000034",
"cX c gray11",
"vX c #4C4C4C",
"bX c gray36",
"nX c gray25",
"mX c gray19",
"MX c #343434",
"NX c #D8F4F4",
"BX c #B8E8E8",
"VX c #9CDCDC",
"CX c #74C8C8",
"ZX c #48C0C0",
"AX c #20B4B4",
"SX c #20B0B0",
"DX c #00A4A4",
"FX c #009898",
"GX c #008C8C",
"HX c #008484",
"JX c #007C7C",
"KX c #007878",
"LX c #007474",
"PX c #007070",
"IX c #006C6C",
"UX c #980088",
/* pixels */
"H.H.H.H.H.H.H.H.H.H.H.H.H.H.H.H.H.H.H.H.H.H.H.H.H.H.H.H.H.H.H.H.H.H.H.H.H.H.H.H.H.H.H.H.H.H.H.H.H.H.H.H.H.H.H.H.H.H.H.H.H.H.H.H.",
"H.F.F.F.K.K.K.K.K.H.F.S.H.F.K.K.K.K.K.K.K.F.F.F.F.F.F.H.K.K.K.K.K.K.K.K.K.H.F.S.S.F.H.H.K.K.K.K.K.K.K.K.K.K.K.K.K.H.H.H.H.H.H.H.",
"H.yXS.S.F.K.K.K.H.F.S.F.F.H.H.K.K.K.K.K.F.S.A.tXtXtXyXF.H.K.K.K.K.K.K.J.H.F.S.S.S.S.F.S.F.K.K.K.K.K.K.K.K.K.H.H.H.F.S.S.tXtXtXtX",
"H.tXyXS.S.S.F.K.H.F.F.H.F.F.F.H.K.K.J.H.S.A.tXtXyXyXyXyXH.H.J.K.K.J.J.H.J.F.S.S.S.F.S.F.F.H.K.K.K.K.K.K.K.H.H.H.F.S.S.tXtXtXtXtX",
"H.yXyXyXS.F.H.H.H.H.H.F.F.H.H.K.J.J.J.H.S.A.tXyXS.F.F.yXF.H.J.J.J.H.H.J.H.F.S.F.S.F.F.H.H.H.J.J.J.J.J.J.J.J.H.H.F.S.tXtXtXtXuXuX",
"H.S.yXiXF.S.F.H.H.H.H.H.H.J.J.J.J.J.H.H.F.S.S.F.H.F.S.tXF.J.H.yXyXyXS.F.H.H.F.S.F.H.H.yXyXtXyXyXyXuXuXiXiXJ.J.J.F.S.tXtXtXiXH.uX",
"H.S.yXiXS.S.F.F.H.F.F.S.S.S.S.S.F.F.H.H.H.F.S.F.S.S.F.uXJ.H.yXtXtXtXyXS.F.H.H.F.iXiXyXtXtXtXtXtXyXyXyXiXyXiXJ.J.F.S.F.tXyXiXF.uX",
"H.F.S.yXF.S.F.S.F.S.S.S.S.tXF.F.S.S.F.F.H.H.F.H.S.F.F.iXH.yXtXtXuXuXyXS.F.H.iXiXtXtXrXtXtXtXyXuXuXiXuXiXiXyXiXJ.H.F.S.tXyXiXS.uX",
"H.S.S.yXS.F.F.F.S.yXrXS.tXyXF.H.F.F.F.S.F.H.H.H.H.F.H.iXH.tXyXuXH.H.uXF.H.iXuXtXrXrXrXrXrXtXiXuXiXK.uXH.H.yXiXiXJ.H.S.tXyXiXS.uX",
"H.F.S.yXF.H.F.S.yXrXrXtXyXuXF.H.H.H.H.F.F.H.F.H.H.F.F.yXF.yXyXH.S.F.iXS.F.iXtXrXrXeXeXrXrXtXiXK.iXH.uXF.F.uXH.iXJ.J.F.yXuXiXF.uX",
"H.H.F.yXH.F.S.S.rXrXtXyXyXuXF.H.H.F.H.H.H.H.H.F.F.F.F.uXH.yXyXF.S.S.iXF.iXtXuXiXeXeXrXrXtXyXiXH.iXH.uXS.S.uXF.iXH.J.H.yXuXiXS.uX",
"H.H.H.iXF.F.S.A.rXtXyXyXuXiXF.H.F.F.yXyXyXuXiXH.H.H.F.iXJ.iXH.S.F.F.iXJ.iXuXtXF.eXrXtXtXyXuXiXH.H.H.S.S.uXuXF.iXiXH.J.H.uXiXF.H.",
"H.H.H.iXF.S.S.A.rXyXyXiXiXiXF.H.F.yXtXtXtXtXyXF.H.H.H.H.J.iXF.S.H.F.iXJ.iXuXiXF.eXtXtXyXuXuXuXiXS.H.S.uXuXuXuXiXiXF.H.J.uXiXJ.H.",
"H.H.H.iXF.S.A.A.F.yXiXiXF.iXH.F.H.tXtXyXF.yXtXS.F.H.J.J.J.iXJ.J.J.J.J.J.H.uXiXS.tXtXyXuXH.F.uXuXiXS.S.uXiXiXuXiXiXF.F.H.uXiXJ.J.",
"H.H.H.iXF.A.S.tXtXtXyXiXJ.iXJ.J.yXtXyXF.F.S.yXS.F.J.K.K.J.J.J.H.J.J.J.H.J.uXiXS.tXyXuXH.F.S.F.uXiXyXtXiXiXiXS.iXiXF.S.H.J.J.J.J.",
"H.H.H.H.F.S.tXtXyXF.F.F.F.aXJ.J.yXtXyXH.S.F.yXS.F.J.J.J.J.H.H.F.S.S.F.J.J.iXiXS.tXH.uXF.S.S.S.tXyXtXuXiXF.F.F.iXiXF.S.F.H.J.J.J.",
"H.H.H.H.F.S.tXyXF.S.A.A.S.aXK.J.yXtXyXH.S.H.uXF.H.J.H.iXiXiXH.F.F.F.F.J.J.iXH.S.tXS.uXH.iXuXtXtXtXuXiXF.S.F.H.F.iXiXF.F.J.J.J.J.",
"H.H.H.H.F.S.tXF.S.A.S.F.F.aXK.J.tXS.uXH.F.H.iXJ.J.J.yXtXtXyXyXiXH.F.H.J.J.iXH.S.tXS.uXiXtXtXtXtXtXtXuXiXF.F.H.S.iXiXiXF.J.J.J.J.",
"H.H.H.H.F.F.tXF.A.S.H.H.K.aXK.J.tXS.iXH.F.H.iXJ.H.tXeXeXeXeXtXyXH.H.F.J.J.iXF.S.H.S.uXtXtXtXtXuXuXuXuXiXF.S.F.F.F.iXiXiXJ.J.J.J.",
"H.H.H.H.F.F.tXF.A.H.F.S.H.aXJ.J.S.S.F.S.F.H.J.J.S.eXtXyXyXyXyXtXuXH.H.J.J.iXF.F.H.H.uXtXtXuXuXaXuXaXuXiXF.F.H.H.S.F.iXJ.K.J.J.J.",
"H.H.H.H.H.F.F.S.F.H.S.F.H.aXJ.H.F.S.S.F.H.J.J.H.S.yXF.C.A.S.A.yXuXiXiXH.J.iXF.S.H.uXuXtXuXiXaXH.uXH.uXaXF.H.F.H.S.F.iXJ.J.J.H.H.",
"H.F.F.F.H.H.F.S.H.H.F.F.S.F.H.F.S.F.F.H.J.J.H.S.tXC.C.A.S.S.uXS.uXuXiXH.H.iXF.F.H.H.uXtXuXaXH.F.H.F.uXaXF.H.F.H.F.F.iXJ.J.F.F.F.",
"H.tXS.S.F.H.F.F.H.F.H.H.F.S.F.H.H.H.J.J.J.F.S.tXrXS.A.S.tXuXuXiXuXiXiXiXH.iXF.H.H.H.uXS.uXaXF.F.H.H.aXH.H.F.H.J.F.H.iXH.F.S.rXrX",
"H.tXtXyXS.F.H.H.H.H.F.S.H.H.K.K.J.H.H.F.F.S.tXrXtXtXtXtXyXiXH.F.iXH.iXiXiXuXiXH.H.F.uXS.iXaXH.H.H.F.F.H.F.H.J.J.J.iXuXS.S.rXrXtX",
"H.yXyXtXiXF.H.H.F.S.S.S.F.H.K.K.yXyXiXH.F.S.tXrXF.S.tXuXuXH.F.S.H.iXiXuXyXtXyXH.H.F.F.S.iXF.H.H.H.H.S.F.H.H.J.J.K.iXyXtXtXrXrXtX",
"H.yXuXuXiXF.S.F.F.S.S.S.F.J.K.uXyXuXiXH.F.S.tXrXF.S.tXuXiXH.S.H.iXiXiXiXiXuXuXuXF.F.F.S.iXS.F.F.S.S.F.S.F.J.K.J.J.yXtXrXrXS.S.S.",
"H.H.H.iXiXiXF.F.S.S.S.F.H.K.J.tXF.H.iXH.F.S.tXrXtXtXuXiXiXF.S.uXiXiXiXiXuXuXiXuXuXiXS.F.F.F.S.S.F.F.H.F.K.K.J.H.F.tXrXrXA.S.F.F.",
"H.H.H.H.iXiXF.H.F.F.F.H.iXtXtXtXH.F.iXiXF.S.tXtXF.H.H.F.F.S.S.uXiXiXiXH.H.F.uXuXiXiXiXF.S.F.F.S.F.H.J.J.K.K.J.F.S.rXrXA.A.S.H.F.",
"H.S.S.S.uXuXH.S.F.H.H.iXuXuXyXH.H.H.iXJ.F.S.S.tXF.H.F.tXtXtXuXiXiXiXuXuXS.A.uXF.uXiXiXiXF.H.H.F.H.J.J.J.J.J.H.S.rXtXrXrXrXrXtXH.",
"H.H.F.F.yXyXH.F.H.J.J.iXF.F.yXF.F.S.F.J.H.F.S.tXS.A.A.A.A.A.uXiXF.F.iXuXS.S.uXF.uXuXiXiXH.J.J.H.J.yXyXyXH.H.F.S.tXrXyXyXyXrXrXtX",
"H.H.F.S.tXyXS.H.J.J.J.J.H.F.iXS.S.F.H.J.J.H.S.S.A.A.A.S.S.S.uXiXH.A.S.iXH.F.uXF.uXuXiXiXH.J.J.J.yXyXyXH.H.F.S.A.tXyXS.C.C.yXtXtX",
"H.F.S.F.yXyXF.H.F.H.H.H.F.F.iXiXiXiXiXJ.J.H.S.S.A.A.S.S.F.yXuXiXF.S.S.iXH.H.uXH.uXuXiXiXF.H.iXJ.yXyXS.S.S.S.S.A.tXS.C.S.S.A.A.tX",
"H.F.S.F.uXuXS.F.S.F.H.F.S.A.A.S.S.F.uXiXiXF.S.A.S.yXtXtXuXiXuXF.A.F.F.iXH.F.F.F.uXuXiXiXF.H.J.J.yXS.S.S.F.F.S.A.tXS.C.F.F.A.A.yX",
"H.H.S.F.iXiXS.H.F.H.H.S.C.C.A.yXyXyXS.iXJ.S.S.S.yXtXyXuXiXuXF.A.S.F.S.H.F.S.S.S.uXuXiXiXF.H.J.J.iXF.S.S.F.H.S.S.tXS.A.F.H.S.S.uX",
"H.H.F.S.uXuXF.F.F.H.F.A.C.A.yXyXyXyXyXF.H.S.S.S.tXyXiXJ.iXuXiXA.S.H.F.F.F.S.S.S.uXuXiXiXF.H.J.J.iXF.F.F.H.F.S.S.tXS.A.F.H.F.iXiX",
"H.H.F.S.tXyXF.S.S.H.S.A.A.yXyXiXiXF.iXS.H.S.S.F.tXiXJ.H.H.iXiXS.F.J.H.F.S.S.F.H.uXiXiXiXF.H.J.J.iXH.H.F.H.H.F.S.yXF.S.F.J.F.iXiX",
"H.S.H.S.yXiXF.S.F.H.S.S.A.F.yXiXiXS.iXF.H.S.S.H.iXJ.H.F.H.iXiXF.H.J.H.F.S.S.F.H.uXiXH.F.H.J.J.J.iXJ.H.H.J.H.H.F.yXF.S.F.H.J.J.uX",
"H.H.H.S.iXiXF.F.H.H.F.S.S.F.iXiXiXF.iXH.H.F.S.F.iXJ.F.F.H.iXiXJ.J.H.H.H.F.S.H.H.uXiXH.F.H.J.H.H.iXJ.J.J.J.J.J.H.uXH.F.F.F.H.H.yX",
"H.H.H.F.iXF.H.H.J.J.F.S.S.S.iXiXiXH.iXJ.J.H.F.F.yXK.H.H.J.iXiXJ.J.F.H.H.S.H.H.F.F.iXF.S.F.F.F.F.iXJ.J.J.H.H.J.J.uXK.H.F.F.F.F.tX",
"H.H.H.S.F.H.J.J.J.J.H.F.F.S.F.iXH.J.iXJ.J.J.H.H.iXK.F.H.J.iXiXJ.H.H.J.H.H.F.F.H.F.iXH.F.F.S.S.S.iXJ.H.F.F.F.F.H.uXJ.K.J.H.H.J.tX",
"H.H.H.F.H.H.H.J.J.J.J.H.F.F.H.iXH.J.J.J.J.J.J.J.iXJ.H.H.S.F.iXK.J.J.H.H.F.S.S.H.F.H.iXH.F.S.S.F.iXH.F.S.S.S.S.F.H.H.J.K.K.K.K.yX",
"H.H.H.H.F.F.F.F.H.F.H.J.H.F.S.S.S.S.F.J.H.J.J.H.iXJ.J.J.F.H.aXK.J.J.H.F.S.S.F.H.H.H.iXH.S.F.H.H.iXiXyXyXS.S.S.S.F.F.H.J.J.K.K.uX",
"H.H.H.F.S.tXtXS.F.S.F.H.F.S.S.S.S.S.S.S.H.F.H.H.aXJ.J.J.J.J.aXK.J.H.H.F.S.F.H.H.F.H.J.H.J.H.S.iXyXyXtXtXyXyXS.F.F.S.F.H.J.J.K.iX",
"H.J.H.F.tXyXyXuXF.F.H.F.F.S.S.tXtXuXuXF.F.S.F.J.aXJ.J.J.J.J.iXK.H.F.F.H.H.J.J.J.H.J.J.J.H.H.F.S.yXtXyXuXH.uXF.S.F.S.S.F.H.J.J.iX",
"H.J.H.S.yXF.F.uXH.H.F.S.S.S.tXtXtXuXuXH.H.F.H.J.iXJ.J.J.J.J.iXJ.H.H.H.H.F.H.H.J.J.J.J.J.H.F.S.A.tXtXuXiXK.iXF.S.S.S.F.S.F.H.J.iX",
"H.J.H.S.uXF.S.uXS.F.S.S.tXtXtXyXyXuXiXH.H.H.J.K.iXH.uXuXuXuXyXS.S.H.H.H.F.F.F.H.H.J.J.J.H.F.S.A.uXS.iXH.K.H.H.F.S.F.H.F.H.F.H.aX",
"H.J.H.F.uXF.H.uXF.F.S.S.yXS.tXH.H.uXiXH.F.H.J.K.iXuXtXtXyXyXtXA.A.S.H.H.F.S.S.F.F.H.H.H.F.S.tXA.uXS.iXK.K.H.F.S.S.F.H.H.F.S.F.aX",
"H.J.H.H.iXF.S.S.F.S.S.F.uXH.S.J.H.H.iXF.S.F.J.J.uXtXeXrXtXyXtXS.C.A.tXiXF.S.S.F.S.F.H.F.S.tXtXS.iXF.H.K.H.H.iXyXA.S.F.F.F.S.F.aX",
"H.J.J.H.iXF.S.S.F.S.S.F.H.S.H.J.F.S.A.iXS.F.J.J.yXeXrXrXtXtXtXF.A.S.yXtXiXS.F.S.F.F.H.F.tXtXtXS.iXF.H.H.iXiXyXtXrXS.F.S.F.F.F.H.",
"H.J.J.J.iXF.F.F.H.F.S.F.H.H.J.F.F.A.F.iXF.H.H.H.tXrXtXtXyXtXtXtXS.A.S.yXyXF.S.F.S.F.F.tXtXtXtXtXtXH.iXiXyXyXtXrXyXF.F.S.F.F.S.F.",
"H.J.J.J.iXJ.H.H.H.H.F.H.H.H.F.H.F.F.iXF.S.F.H.tXtXyXuXtXuXyXtXtXtXS.A.S.yXiXF.F.F.F.S.tXtXyXyXyXyXtXS.S.rXrXrXyXiXH.H.F.F.F.S.F.",
"H.J.K.J.aXJ.J.J.J.H.H.F.F.J.H.J.J.K.iXH.F.H.H.S.tXuXyXyXiXuXyXyXyXF.S.S.yXiXJ.H.H.F.tXtXyXyXJ.J.J.H.F.F.yXiXH.yXiXH.F.S.S.F.S.F.",
"H.K.K.K.aXJ.K.J.J.J.J.H.H.H.F.F.J.J.iXJ.H.iXtXtXtXtXyXiXyXuXuXiXiXyXtXS.yXiXJ.J.H.H.tXyXF.uXJ.H.H.F.S.S.yXiXF.yXiXF.S.S.F.H.F.H.",
"H.J.K.K.K.K.J.J.J.H.H.H.H.H.H.H.J.J.iXaXiXtXuXuXiXyXiXyXyXiXiXiXiXiXyXyXyXyXiXJ.J.H.uXS.F.iXH.iXyXyXiXiXyXS.S.F.iXS.S.uXyXiXH.H.",
"H.J.K.K.aXJ.J.H.H.F.F.S.S.S.S.S.F.H.iXiXtXuXuXiXaXiXiXyXiXiXJ.H.H.F.F.uXuXyXyXiXiXH.iXF.S.iXF.yXuXuXiXiXyXS.F.F.iXF.uXyXyXyXiXH.",
"H.J.K.J.J.J.H.F.S.S.S.tXtXtXtXtXS.F.H.iXyXuXiXJ.aXiXJ.iXiXiXH.S.F.F.H.iXiXiXiXuXiXJ.iXH.F.iXS.F.iXJ.iXiXyXF.H.H.iXS.F.F.uXuXiXJ.",
"H.J.J.J.J.J.F.S.A.A.yXtXuXuXuXuXtXS.H.iXyXiXJ.J.aXiXJ.iXiXiXF.S.S.S.S.iXiXaXaXuXiXJ.iXJ.H.iXS.F.iXJ.iXiXH.H.F.H.iXF.H.F.iXiXiXJ.",
"H.J.J.J.J.H.F.S.A.A.tXH.F.F.F.uXuXF.H.iXyXiXJ.J.J.iXJ.J.H.iXH.F.S.S.S.aXiXaXJ.iXiXH.H.J.J.iXF.F.iXJ.iXiXH.H.S.H.iXH.H.H.iXiXiXJ.",
"H.J.J.J.J.H.F.S.A.H.uXF.S.F.S.F.uXF.H.aXS.S.H.H.S.iXH.S.H.iXH.F.S.F.F.aXaXJ.J.iXaXJ.H.J.J.iXJ.J.iXJ.uXuXiXH.H.H.iXH.F.H.H.yXuXuX",
"H.J.J.J.J.H.F.S.uXuXiXuXuXS.F.S.iXF.F.aXH.S.S.H.H.iXH.H.H.iXF.H.F.H.J.J.aXJ.F.iXaXJ.F.J.J.iXH.J.J.H.yXF.yXiXH.H.iXF.H.H.yXeXtXtX",
"H.J.J.J.J.uXtXtXtXF.S.F.F.F.F.F.iXF.S.aXH.H.H.H.H.iXiXiXiXiXF.F.H.H.H.J.aXF.H.iXaXJ.J.J.H.iXF.F.H.S.uXS.F.iXiXH.iXH.H.yXeXtXyXyX",
"H.iXJ.J.F.tXtXyXyXtXF.F.S.S.iXiXiXiXiXiXH.H.S.H.iXiXiXiXiXiXiXiXiXiXiXiXaXiXH.iXaXJ.F.H.F.S.S.S.F.H.iXiXiXiXiXiXiXiXiXtXeXyXF.iX",
"H.iXiXiXS.tXJ.F.S.uXS.H.F.iXiXiXiXiXiXiXiXiXiXiXiXyXS.yXyXyXyXuXuXuXiXiXiXiXiXiXaXF.S.F.F.S.S.S.iXiXiXuXuXuXuXyXyXyXtXeXyXiXS.F.",
"H.iXiXiXiXyXF.S.H.iXiXiXiXiXyXyXtXtXyXyXyXiXiXiXiXiXyXtXrXeXrXtXtXyXyXyXyXyXuXuXiXiXiXiXiXiXiXiXiXiXiXuXyXtXtXtXtXtXtXyXiXiXiXiX"
};
