/* XPM */
static char *_2501_3c2e4e54039b31cfbafb70a5f79bc0bf8578edad3aa4802087a64d4dc8f7dad7[] = {
/* columns rows colors chars-per-pixel */
"64 64 256 2 ",
"   c black",
".  c #0000A8",
"X  c #00A800",
"o  c #00A8A8",
"O  c #A80000",
"+  c #A800A8",
"@  c #A85400",
"#  c gray66",
"$  c gray33",
"%  c #5454FC",
"&  c #54FC54",
"*  c #54FCFC",
"=  c #FC5454",
"-  c #FC54FC",
";  c #FCFC54",
":  c gray99",
">  c #ECECEC",
",  c gainsboro",
"<  c #D0D0D0",
"1  c #C0C0C0",
"2  c #B4B4B4",
"3  c gray66",
"4  c #989898",
"5  c gray55",
"6  c #7C7C7C",
"7  c gray44",
"8  c #646464",
"9  c gray33",
"0  c #484848",
"q  c gray22",
"w  c #2C2C2C",
"e  c #202020",
"r  c #FC0000",
"t  c #EC0000",
"y  c #E00000",
"u  c #D40000",
"i  c #C80000",
"p  c #BC0000",
"a  c #B00000",
"s  c #A40000",
"d  c #980000",
"f  c #880000",
"g  c #7C0000",
"h  c #700000",
"j  c #640000",
"k  c #580000",
"l  c #4C0000",
"z  c #400000",
"x  c #FCD8D8",
"c  c #FCB8B8",
"v  c #FC9C9C",
"b  c #FC7C7C",
"n  c #FC5C5C",
"m  c #FC4040",
"M  c #FC2020",
"N  c #FC0000",
"B  c #FCA85C",
"V  c #FC9840",
"C  c #FC8820",
"Z  c #FC7800",
"A  c #E46C00",
"S  c #CC6000",
"D  c #B45400",
"F  c #9C4C00",
"G  c #FCFCD8",
"H  c #FCFCB8",
"J  c #FCFC9C",
"K  c #FCFC7C",
"L  c #FCF85C",
"P  c #FCF440",
"I  c #FCF420",
"U  c #FCF400",
"Y  c #E4D800",
"T  c #CCC400",
"R  c #B4AC00",
"E  c #9C9C00",
"W  c #848400",
"Q  c #706C00",
"!  c #585400",
"~  c #404000",
"^  c #D0FC5C",
"/  c #C4FC40",
"(  c #B4FC20",
")  c #A0FC00",
"_  c #90E400",
"`  c #80CC00",
"'  c #74B400",
"]  c #609C00",
"[  c #D8FCD8",
"{  c #BCFCB8",
"}  c #9CFC9C",
"|  c #80FC7C",
" . c #60FC5C",
".. c #40FC40",
"X. c #20FC20",
"o. c #00FC00",
"O. c #00FC00",
"+. c #00EC00",
"@. c #00E000",
"#. c #00D400",
"$. c #04C800",
"%. c #04BC00",
"&. c #04B000",
"*. c #04A400",
"=. c #049800",
"-. c #048800",
";. c #047C00",
":. c #047000",
">. c #046400",
",. c #045800",
"<. c #044C00",
"1. c #044000",
"2. c #D8FCFC",
"3. c #B8FCFC",
"4. c #9CFCFC",
"5. c #7CFCF8",
"6. c #5CFCFC",
"7. c #40FCFC",
"8. c #20FCFC",
"9. c #00FCFC",
"0. c #00E4E4",
"q. c #00CCCC",
"w. c #00B4B4",
"e. c #009C9C",
"r. c #008484",
"t. c #007070",
"y. c #005858",
"u. c #004040",
"i. c #5CBCFC",
"p. c #40B0FC",
"a. c #20A8FC",
"s. c #009CFC",
"d. c #008CE4",
"f. c #007CCC",
"g. c #006CB4",
"h. c #005C9C",
"j. c #D8D8FC",
"k. c #B8BCFC",
"l. c #9C9CFC",
"z. c #7C80FC",
"x. c #5C60FC",
"c. c #4040FC",
"v. c #2024FC",
"b. c #0004FC",
"n. c #0000FC",
"m. c #0000EC",
"M. c #0000E0",
"N. c #0000D4",
"B. c #0000C8",
"V. c #0000BC",
"C. c #0000B0",
"Z. c #0000A4",
"A. c #000098",
"S. c #000088",
"D. c #00007C",
"F. c #000070",
"G. c #000064",
"H. c #000058",
"J. c #00004C",
"K. c #000040",
"L. c #282828",
"P. c #FCE034",
"I. c #FCD424",
"U. c #FCCC18",
"Y. c #FCC008",
"T. c #FCB400",
"R. c #B420FC",
"E. c #A800FC",
"W. c #9800E4",
"Q. c #8000CC",
"!. c #7400B4",
"~. c #60009C",
"^. c #500084",
"/. c #440070",
"(. c #340058",
"). c #280040",
"_. c #FCD8FC",
"`. c #FCB8FC",
"'. c #FC9CFC",
"]. c #FC7CFC",
"[. c #FC5CFC",
"{. c #FC40FC",
"}. c #FC20FC",
"|. c #FC00FC",
" X c #E000E4",
".X c #C800CC",
"XX c #B400B4",
"oX c #9C009C",
"OX c #840084",
"+X c #6C0070",
"@X c #580058",
"#X c #400040",
"$X c #FCE8DC",
"%X c #FCE0D0",
"&X c #FCD8C4",
"*X c #FCD4BC",
"=X c #FCCCB0",
"-X c #FCC4A4",
";X c #FCBC9C",
":X c #FCB890",
">X c #FCB080",
",X c #FCA470",
"<X c #FC9C60",
"1X c #F0945C",
"2X c #E88C58",
"3X c #DC8854",
"4X c #D08050",
"5X c #C87C4C",
"6X c #BC7848",
"7X c #B47044",
"8X c #A86840",
"9X c #A0643C",
"0X c #9C6038",
"qX c #905C34",
"wX c #885830",
"eX c #80502C",
"rX c #744C28",
"tX c #6C4824",
"yX c #5C4020",
"uX c #543C1C",
"iX c #483818",
"pX c #403018",
"aX c #382C14",
"sX c #28200C",
"dX c #600064",
"fX c #006464",
"gX c #006060",
"hX c #00001C",
"jX c #00002C",
"kX c #302410",
"lX c #480048",
"zX c #500050",
"xX c #000034",
"cX c gray11",
"vX c #4C4C4C",
"bX c gray36",
"nX c gray25",
"mX c gray19",
"MX c #343434",
"NX c #D8F4F4",
"BX c #B8E8E8",
"VX c #9CDCDC",
"CX c #74C8C8",
"ZX c #48C0C0",
"AX c #20B4B4",
"SX c #20B0B0",
"DX c #00A4A4",
"FX c #009898",
"GX c #008C8C",
"HX c #008484",
"JX c #007C7C",
"KX c #007878",
"LX c #007474",
"PX c #007070",
"IX c #006C6C",
"UX c #980088",
/* pixels */
"q yXrXwXwXwXwX0XeX0X0X0X0X0X0XwXwXwXeX0XeXeXeXyXtXtXyXiXq q pXrXrX0XrXrXrXrXrXrXrXrXrXq q aXrXrXrXrXrXrXrXrXrXrXaXq rXrXrXrXrXq ",
"e wXwXwX9X0XwX9XwX0XeXwXwX9XwXeX0XrXrXrXeXwXeXtXyXiXyXtX  e yX0X6X6X6X6X6X6X0XeXeXeXtX  e yX0X0X0X9X9X9X0X0X0XwXrX  9X4X9X9XwX  ",
"e 9XwX9X0XwXwXrXtXeXwX9X9X7XwXeXrXiXtXtXrXrXeXtXtXyXtXrX  e yX3X<X6X0X0X0XwX6X0XeXtXiX  e yX7X9X7X9X0X0X7X5X5X6XrX  9X4X9XwXeX  ",
"e 0X0XwX0XwXeXwXwX7XwXwXeX0XeXwXeXtXwXtXrXeXeXeXeXyXiXtX  e yX0X7X7X0XeXrXwXtXrXtXtXiX  e yX9X7X9X0X7X6X9X5X9X7XrX  0X0X9X0XtX  ",
"e 0X9X9X0XwXeXrXwX7X0XwX0XwXeXeXrXwXeXwXeXrXeXtXeXeXeXiX  e yX0X6X7X0XrXrXeXtXtXiXyXiX  e yX7X9X9X7X0X9X0X0X7X0XtX  eXwX0XrXtX  ",
"e wX0XwXwXeXwXeXwX0XwXwXrXrXeX9XtXtXtXwX9XeXtXeXeXeXeXtX  e iX0X0X0X0X0XtXtXwXtXyXyXiX  e yX7X9X6X9X6X2X6X9X0XwXrX  wXeXrXyXrX  ",
"e wXwXwXeX0XeXrX9XwXwXrXrXrXwX0XiXiXtX0X9XeXwXwXrXeXeXtX  e pX0XeX0XeXrXeXrXrXtXtXyXiX  e yX9X7X9X7X7X2X6X9X7XwXtX  wXrXeXiXtX  ",
"e wX9XwXwXeX0X0XwXeXeXeXeXtXyXtXyXyXwXwX9XwX6X0XeXtXyXtX  e yX0XeX0X0XrXrXtXtXtXyXiXiX  e yX9X7X7X7X6X7X7XwX7XwXrX  tXyXrXyXiX  ",
"e eXeXeXeXwXrX9X0XeXeXtXrXyXtXtXiXiX9X9XeX0X9X0XwXrXtXrX  e yXeXeX0XtXeXtXrXrXtXrXiXyX  e yX9X6X9X6X6X9X7X0XwX9XwX              ",
"e rXwXeX9X6X9XeX0XwXeXtX0XeXrXtXtXeX0X9XwXrXeXeX9XwXyXrX  e yX9XeXeXrXeXrXeXyXiXiXiXiX  e yX9X7X0X6X7X0X9XwXeX0XrX  sX0X9X9XiX  ",
"e rXrXwX9X7X9X9XwX0XeXtXrXrXtXtXyXtX9X9X9XwXrXeXwXiXrXtX  e iX9XeXeXtXeXrXyXrXeXiXiXiX  e yX9X7X0X0X9XwX0X7X0X0XrX  0X<X6X9XeX  ",
"e rXeXwX9XwX9XeX0XrXrXtXtXtXyXtXiXiXwX0XeXtXrX9XrXyXtXtX  e iX9XwXrXrXyXeXyXtXiXeXyXiX  e yX9X7X7XwX0XeX6X6X6XwXyX  wX<X9XwXyX  ",
"e yXrX0XwX0XwXwXwX0XrXtXrXtXiXtXiXtXeXwX0X0XwXrXyXrXtXiX  e iXrXeXtXeXtXyXiXyXtXeXyXiX  e yX9X0X9X0X0XwXwX0X0XrXiX  wX5X9XeXiX  ",
"e iXyXrX0XrXrXwX0XeXrXe e e e e e e e e e e e e e e e e e e e e e e e e e e e e e e e e e e e e e e e e e 0XeXiXiX  eX0XrXyXtX  ",
"e aXpXtXtXtXtXtXtXtXtXe 5 5 6 6 6 6 6 6 6 6 6 6 6 6 6 6 6 6 6 6 6 6 6 6 6 6 6 6 6 6 6 6 6 6 6 6 6 8 8 9 w tXyXrXiX  pXrX7XwXiX  ",
"e                     e 5 8 0 0 0 0 0 0 0 0 0 0 0 0 0 0 0 0 0 0 0 0 0 0 0 0 0 0 0 0 0 0 0 0 0 0 0 0 0 0 w rXiXrXiX              ",
"rXrXrXrXwXwXwXwXwXwXwXe 6 0 0 0 0 0 0 0 0 0 0 0 0 0 0 0 0 0 0 0 0 0 0 0 0 0 0 0 0 0 0 0 0 0 0 0 0 0 0 0 w eXrXrXiX  pXeXeXeXeXeX",
"9X9X0X0X0X7X7X9X3X3X0Xe 6 0 0                                                                     9 0 0 w rXrXyXiX  eX0X6X4X6X0X",
"7X7X7X7X0X7X0X0X6X6X0Xe 6 0 0       q w           q w           q w           q w         q w     9 0 0 w rXtXiXyX  0X0X3X<X3X9X",
"5X9X9X5X7X9X7X7XwXwX0Xe 6 0 0       9 q           9 q           9 q           9 q         9 q     8 0 0 w rXiXyXyX  0X0X3X,X3X6X",
"5X9X0X0X6X7XwX0XwX0X0Xe 6 0 0       8 q           8 q           8 q           8 q         8 q     8 0 0 w eXyXeXiX  0X6X5X3X6X9X",
"5X2X9X0X7X7X0X0X7X0XwXe 6 0 0       8 q           8 q           8 q           8 q         8 q     6 0 0 w rXiXiXiX  7X6X6X6X6X0X",
"5X6X0X9X7X0X7X9X0X0XeXe 6 0 0       8 q           8 q           8 q           8 q         8 q     6 0 0 w yXiXiXiX  9X7X0X0X6X0X",
"7X6X9X9X7X7X9X0XwX0X7Xe 6 0 0       8 q           8 q           8 q           8 q         8 q     6 0 0 w tXiXyXiX  9X7X7X6X6X7X",
"5X7X0X0X0X7X7X7X0X7XeXe 6 0 0       8 q           8 q           8 q           8 q         8 q     6 0 0 0 tXyXrXiX  0X0X6X6X0X6X",
"6X7X0XwX0X7X9X0X0X0X0Xe 6 0 0       8 q           8 q           8 q           8 q         8 q     6 0 0 8 yXyXyXiX  0X6X7X6X5X9X",
"9XwX7X9X0X0X0X0XwXwXyXe 6 0 0       8 q           8 q           8 q           8 q         8 q     6 0 0 q yXtXyXyX  0X6X6X7X5X0X",
"7X9X9X7XwXwXrXeXwXrXeXe 6 0 0       8 q           8 q           8 q           8 q         8 q     6 0 0 8 yXyXtXiX  eX6X3X3X7X9X",
"0X7X9X9XwXwXtXtXwXeXtXe 6 0 0       8 q           8 q           8 q           8 q         8 q     6 0 0 8 rXyXyXyX  eX6X4X4X6X0X",
"7XeXeXwXeXwXeXrXeXtXrXe 6 0 0       8 q           8 q           8 q           8 q         8 q     6 0 0 0 rXiXiXiX  eX6X0X7X9X9X",
"0XeXrXtXtX9XwXwX0XeXrXe 6 0 0       8 q           8 q           8 q           8 q         8 q     6 0 0 w rXtXiXiX  eX0X6X9X0X0X",
"eXwXwXeX0XeXwX7XeXwXwXe 6 0 0       8 q           8 q           8 q           8 q         8 q     6 0 0 w tXtXiXiX  eX0X6X6X9X0X",
"0XeXrX0XeX0XeX0XwX9X0Xe 6 0 0 9 8 6 8 0 9 9       8 q           8 q           8 q         8 q     6 0 0 w eXrXyXiX  eX0X6X0X0XeX",
"tXeXtX0XwX9XwXeXwX9X9Xe 6 0 0 0 0 0 0 0 0 0       8 q           8 q           8 q         8 q     6 0 0 w eXyXiXiX  eX0X0X0X0XeX",
"tXwXwXwXyX9X9XeXwX9XwXe 6 0 0 0 0 0 0 0 0 0       8 q           8 q           8 q         8 q     6 0 0 w tXtXiXiX  tX0X0X9XwXwX",
"wXtXwXwXeX7X0XwXwXtXwXe 6 0 0 0 0 0 0 0 0 0       8 q           8 q           8 q         8 q     6 0 0 w rXtXyXiX  tX0XeX0XwXeX",
"eXeXwXwXiX9X9X0XeXeXwXe 6 0 0 0 0 0   0 0 0       8 q           8 q           8 q         8 q     6 0 0 w tXtXyXiX  tXwXeXeXeXeX",
"eXwXwXtXyXwXwX9XeXwXwXe 6 0 0   0   w w 0 0       8 q           8 q           8 q         8 q     6 0 0 w iXiXtXiX  tXeXwXrXrXeX",
"eXrXrXyXrX0XwX0XeXrXrXe 6 0 0 w 0   w w 0 0       8 q           8 q           8 q         8 q     6 0 0 w yXrXyXiX  tX0XwX0XeXrX",
"rXwXtXrXtXwX0XeXrXwXtXe 6 0 0 0 0   0 w 0 0       8 q           8 q           8 q         8 q     6 0 0 w tXeXrXiX  pXwX0XeXrXwX",
"                      e 6 0 0 0 0 w 8 w 0 0       8 q           8 q           8 q         8 q     6 0 0 w iXrXyXiX  e           ",
"e e e e e e iXiXiXiXiXe 6 0 0 0 0 0 w 0 0 0       8 q           8 q           8 q         8 q     6 0 0 w aXyXaXiX  e aX0XtXaXe ",
"e e aX0X6X5X5X5X4X4X5Xe 6 0 0 0 0 0 0 0 0 0       8 q           8 q           8 q         8 q     6 0 0 w iXaXiXiX  e tX0XeXyXe ",
"e e 0X4X2X2X4X2X6X6X7Xe 6 0 0 0 0 0 0 0 0 0       8 q           8 q           8 q         8 q     6 0 0 w           e aXiXyXtXe ",
"e e 0X2X2X4X5X6X9X7X9Xe 6 0 0 0 0 0 0 0 0 0       8 q           8 q           8 q         8 q     6 0 0 w e e e e e e e e e e e ",
"e e 7X2X2X4X4X6X7X0X9Xe 6 0 0                     8 q           8 q           8 q         8 q     6 0 0 w 4X4X4X4X4X7X9X9X9XrXe ",
"e e 7X4X5X4X5X9X9X0X9Xe 6 0 0       0 q           8 q           8 q           8 q         8 q     6 0 0 w 6X9X9X9X9X9X9X7X0XeX  ",
"e e 7X4X5X9X6X7X9X0X9Xe 6 0 0       9 q           8 q           8 q           8 q         8 q     6 0 0 w wXwXwXeXwXwX9X9XyXeX  ",
"e e 7X4X5X5X7X9X0X0X0Xe 6 0 0       8 q           8 q           8 q           8 q         8 q     6 0 0 w 6XrXwXrXeXeXwXtXyXrX  ",
"e e 7X7X9X9X7X7X7X9X0Xe 6 0 0       8 q           8 q           8 q           8 q         8 q     6 0 0 9 6XeXwXrXeX0XrXrXeXyX  ",
"e e 7X0X7X7X7X7X7X7XwXe 6 0 0       8 q           8 q           8 q           8 q         8 q     6 0 0 8 0XeXrXwXwXrX0XrXrXiX  ",
"e e 7X7X7X7X6X<X4X7XwXe 6 0 0       8 q           8 q           8 q           8 q         8 q     6 0 0 q 9XrXeXeXrXwXwXyXyXiX  ",
"e e 7X7X7X6X4X5X4X5X0Xe 6 0 0       8 q           8 q           8 q           8 q         8 q     6 0 0 8 eXeXwXeXeXwXrXyXyXiX  ",
"e e 7X9X7X5X4X5X4X7X9Xe 6 0 0       8 q           8 q           8 q           8 q         8 q     6 0 0 8 0XeXeXrXeXwXyXyXpXpX  ",
"e e 7X7X7X6X6X5X6X9X9Xe 6 0 0       8 q           8 q           8 q           8 q         8 q     6 0 0 0 eXeXtXtXrXrXtXyXyXpX  ",
"e e 6X7X9X9X7X7XwX0X9Xe 6 0 0       8 q           8 q           8 q           8 q         8 q     6 0 0 w tXtXtXtXyXyXiXyXpXaX  ",
"e e 6X7X7X9X9X0XwXwXwXe 6 0 0       8 q           8 q           8 q           8 q         8 q     6 0 0 w tXtXeXyXiXaXpXiXpXpX  ",
"e e 6X7X7XwXwXeXwXwXwXe 6 0 0       8 q           8 q           8 q           8 q         8 q     6 0 0 w eXrXtXyXaXiXyXiXpXpX  ",
"e e 6X0XwXwXeXeXeXrXrXe 6 0 0       8 q           8 q           8 q           8 q         8 q     6 0 0 w rXtXrXyXyXrXyXiXyXiX  ",
"e e 9X0XwX0XeXrXrXiXyXe 6 0 0       8 q           8 q           8 q           8 q         8 q     6 0 0 w eXtXaXiXiXyXtXyXyXiX  ",
"e e 0X0XeXeXrXeXyXpXpXe 6 0 0       8 q           8 q           8 q           8 q         8 q     5 9 0 w iXyXyXyXiXiXyXiXaXaX  ",
"e e 0XwXwXeXwXtXtXyXtXe 8 0 0 8 8 6 6 6 6 6 6 6 6 6 6 6 6 6 6 6 6 6 6 6 6 6 6 6 6 6 6 6 6 6 6 6 5 5 9 0 w yXyXyXiXiXiXyXaXpXaXe ",
"q q tXtXtXtXtXtXtXtXtXe 9 0 0 0 0 0 0 0 0 0 0 0 0 0 0 0 0 0 0 0 0 0 0 0 0 0 0 0 0 0 0 0 0 0 0 0 0 9 9 0 w yXyXyXyXyXyXaXaXaXaXw ",
"9 9 9 9 9 9 9 9 9 9 9 q w w w w w w w w w w w w w w w w w w w w w w w w w w w w w w w w w w w w w w w w w 9 9 9 9 9 9 9 9 9 9 9 "
};
