/* XPM */
static char *_873_2de75348820fc3887d2b5f72ba0380ffc6e5caa3d07ca8c727a344499b1bcb16[] = {
/* columns rows colors chars-per-pixel */
"64 64 256 2 ",
"   c black",
".  c #0000A8",
"X  c #00A800",
"o  c #00A8A8",
"O  c #A80000",
"+  c #A800A8",
"@  c #A85400",
"#  c gray66",
"$  c gray33",
"%  c #5454FC",
"&  c #54FC54",
"*  c #54FCFC",
"=  c #FC5454",
"-  c #FC54FC",
";  c #FCFC54",
":  c gray99",
">  c #ECECEC",
",  c gainsboro",
"<  c #D0D0D0",
"1  c #C0C0C0",
"2  c #B4B4B4",
"3  c gray66",
"4  c #989898",
"5  c gray55",
"6  c #7C7C7C",
"7  c gray44",
"8  c #646464",
"9  c gray33",
"0  c #484848",
"q  c gray22",
"w  c #2C2C2C",
"e  c #202020",
"r  c #FC0000",
"t  c #EC0000",
"y  c #E00000",
"u  c #D40000",
"i  c #C80000",
"p  c #BC0000",
"a  c #B00000",
"s  c #A40000",
"d  c #980000",
"f  c #880000",
"g  c #7C0000",
"h  c #700000",
"j  c #640000",
"k  c #580000",
"l  c #4C0000",
"z  c #400000",
"x  c #FCD8D8",
"c  c #FCB8B8",
"v  c #FC9C9C",
"b  c #FC7C7C",
"n  c #FC5C5C",
"m  c #FC4040",
"M  c #FC2020",
"N  c #FC0000",
"B  c #FCA85C",
"V  c #FC9840",
"C  c #FC8820",
"Z  c #FC7800",
"A  c #E46C00",
"S  c #CC6000",
"D  c #B45400",
"F  c #9C4C00",
"G  c #FCFCD8",
"H  c #FCFCB8",
"J  c #FCFC9C",
"K  c #FCFC7C",
"L  c #FCF85C",
"P  c #FCF440",
"I  c #FCF420",
"U  c #FCF400",
"Y  c #E4D800",
"T  c #CCC400",
"R  c #B4AC00",
"E  c #9C9C00",
"W  c #848400",
"Q  c #706C00",
"!  c #585400",
"~  c #404000",
"^  c #D0FC5C",
"/  c #C4FC40",
"(  c #B4FC20",
")  c #A0FC00",
"_  c #90E400",
"`  c #80CC00",
"'  c #74B400",
"]  c #609C00",
"[  c #D8FCD8",
"{  c #BCFCB8",
"}  c #9CFC9C",
"|  c #80FC7C",
" . c #60FC5C",
".. c #40FC40",
"X. c #20FC20",
"o. c #00FC00",
"O. c #00FC00",
"+. c #00EC00",
"@. c #00E000",
"#. c #00D400",
"$. c #04C800",
"%. c #04BC00",
"&. c #04B000",
"*. c #04A400",
"=. c #049800",
"-. c #048800",
";. c #047C00",
":. c #047000",
">. c #046400",
",. c #045800",
"<. c #044C00",
"1. c #044000",
"2. c #D8FCFC",
"3. c #B8FCFC",
"4. c #9CFCFC",
"5. c #7CFCF8",
"6. c #5CFCFC",
"7. c #40FCFC",
"8. c #20FCFC",
"9. c #00FCFC",
"0. c #00E4E4",
"q. c #00CCCC",
"w. c #00B4B4",
"e. c #009C9C",
"r. c #008484",
"t. c #007070",
"y. c #005858",
"u. c #004040",
"i. c #5CBCFC",
"p. c #40B0FC",
"a. c #20A8FC",
"s. c #009CFC",
"d. c #008CE4",
"f. c #007CCC",
"g. c #006CB4",
"h. c #005C9C",
"j. c #D8D8FC",
"k. c #B8BCFC",
"l. c #9C9CFC",
"z. c #7C80FC",
"x. c #5C60FC",
"c. c #4040FC",
"v. c #2024FC",
"b. c #0004FC",
"n. c #0000FC",
"m. c #0000EC",
"M. c #0000E0",
"N. c #0000D4",
"B. c #0000C8",
"V. c #0000BC",
"C. c #0000B0",
"Z. c #0000A4",
"A. c #000098",
"S. c #000088",
"D. c #00007C",
"F. c #000070",
"G. c #000064",
"H. c #000058",
"J. c #00004C",
"K. c #000040",
"L. c #282828",
"P. c #FCE034",
"I. c #FCD424",
"U. c #FCCC18",
"Y. c #FCC008",
"T. c #FCB400",
"R. c #B420FC",
"E. c #A800FC",
"W. c #9800E4",
"Q. c #8000CC",
"!. c #7400B4",
"~. c #60009C",
"^. c #500084",
"/. c #440070",
"(. c #340058",
"). c #280040",
"_. c #FCD8FC",
"`. c #FCB8FC",
"'. c #FC9CFC",
"]. c #FC7CFC",
"[. c #FC5CFC",
"{. c #FC40FC",
"}. c #FC20FC",
"|. c #FC00FC",
" X c #E000E4",
".X c #C800CC",
"XX c #B400B4",
"oX c #9C009C",
"OX c #840084",
"+X c #6C0070",
"@X c #580058",
"#X c #400040",
"$X c #FCE8DC",
"%X c #FCE0D0",
"&X c #FCD8C4",
"*X c #FCD4BC",
"=X c #FCCCB0",
"-X c #FCC4A4",
";X c #FCBC9C",
":X c #FCB890",
">X c #FCB080",
",X c #FCA470",
"<X c #FC9C60",
"1X c #F0945C",
"2X c #E88C58",
"3X c #DC8854",
"4X c #D08050",
"5X c #C87C4C",
"6X c #BC7848",
"7X c #B47044",
"8X c #A86840",
"9X c #A0643C",
"0X c #9C6038",
"qX c #905C34",
"wX c #885830",
"eX c #80502C",
"rX c #744C28",
"tX c #6C4824",
"yX c #5C4020",
"uX c #543C1C",
"iX c #483818",
"pX c #403018",
"aX c #382C14",
"sX c #28200C",
"dX c #600064",
"fX c #006464",
"gX c #006060",
"hX c #00001C",
"jX c #00002C",
"kX c #302410",
"lX c #480048",
"zX c #500050",
"xX c #000034",
"cX c gray11",
"vX c #4C4C4C",
"bX c gray36",
"nX c gray25",
"mX c gray19",
"MX c #343434",
"NX c #D8F4F4",
"BX c #B8E8E8",
"VX c #9CDCDC",
"CX c #74C8C8",
"ZX c #48C0C0",
"AX c #20B4B4",
"SX c #20B0B0",
"DX c #00A4A4",
"FX c #009898",
"GX c #008C8C",
"HX c #008484",
"JX c #007C7C",
"KX c #007878",
"LX c #007474",
"PX c #007070",
"IX c #006C6C",
"UX c #980088",
/* pixels */
"sXsXsXsXsXsXsXsXsXsXsXsXsXsXsXsXsXsXsXsXsXsXsXsXsXsXsXsXsXsXsXsXsXsXsXsXsXsXsXsXsXsXsXsXsXsXsXsXsXsXsXsXsXsXsXsXsXsXsXsXsXsXsXsX",
"uXuXuXuXuXuXuXuXuXuXiX3X3X3X3X3X3X3X3X3X3X3X3X3X3X3X3XsXaXqX7X5X3X3X3X3X3X3X5X5X7XqXuXsXiXiXiXiXiXiXiXiXiXiXuXuXuXuXuXuXuXuXuXuX",
"uXuXuXuXuXuXuXuXuXuXiX3X3X3X3X5X3X3X3X3X3X3X5X3X3X3XqXsXaXqX5X7XqX7XqXqXqXqXqXqX7XuXaXsXaXrXqXqXqXqXqXqXeXrXtXiXiXiXiXiXiXiXiXiX",
"qXqXqXqXqXqXqXqXsXuXiX3X3X5X7X3X7X3X5X7X3X5X5X7X3XqXtXsXaX7X3X7XqX7XqX7XqX7XqX7XqXuXaXsXaXqX3X3X3X3X3X3X5X7X7XqXqXqXqXqXqXqXqXqX",
"3X3X3X3X7X7XqXqXsXuXiX3X3X7X7X7X7XqX7X7X7X7X9X7X7XeXuXsXaXqX5XqXqXqX7X7X7X7XqXqXrXuXaXsXaXqX3X3X5X5X5X3X3X3X3X3X3X3X3X3X3X3X3X3X",
"7X7X7X7X7X7XeXrXsXuXiX,X5X9X7X7X7X7X7X7X9X7XqX7X7XrXuXsXaXiX7XqX7X7XqXqX7XqX7XrXuXuXaXsXaXqX3X7X7XqX7XqX7X7X7XqXqX7XqX7XqX7XqX9X",
"7X9X7X9X7XqXeXrXsXiXiX,X3X7XqX7X9X7XqX9X9X9XqX9X7XqXuXsXaXiXeXqXqX7XqX7X7XqX7XrXaXaXaXsXaXqX3X7XqX7XqX9XqXqXqX7XqXqX9X9X7X9XqX7X",
"7X7XeX7XqX9XtXuXsXaXiX,X3XqX9XqX7X7X7XqXeXqX9X7XqXtXuXsXaXiXiXqX7X7X7XqXqXqX7XrXaXaXaXsXaXqX3X7X7XqX9XeX7X9XeXqX7XqX7X7XqXeX7X9X",
"9X7X7X9X9XrXiXiXsXsXiX5X5X7X9X7XqX7XqX9XqX9XqXqX7XrXuXsXsXiXuXiXeXaXaXaXaXaXaXaXaXaXsXsXaXeX3X3XqX7XqXeX9XeX9XqX7XqX9XeX7X7XeXqX",
"qXqXqXqXrXuXiXiXsXsXiX7X,X7X7X7XqXqX9XqXqXqXqX7XqXuXeXsXsXaXiXaXaXaXaXaXaXaXaXaXsXsXsXiXiXiX5X3XqXqXqX9X9X9X9XqXqX7XqX7X7XqX7XqX",
"rXrXrXrXuXiXaXaXsXsXiXqX3XqX7XqX9XeXqXqX7XqX7XqX7XrXuXsXsXaXiXaXsXsXsXsXsXsXsXsXsXsXsXiXuXiX5X7XqX7XqX7XqXqXqXrXrXtXtXtXtXtXtXtX",
"uXuXiXiXiXsXsXsXsXsXiXrX3X7XqX9XeXeXeX7X9XqXqXeXqXrXtXaXsXaXiXiXiXiXrXeXqX7X7X7X7X9XrXaXuXiX7XqXrXrXtXtXtXuXuXuXuXiXiXiXiXiXiXiX",
"sXsXsXsXsXsXsXsXsXaXuXiX3X3XqXqXqX9X9XqXqX7XeXqX7XqXuXaXsXaXiXrX7X7X3X3X,X3X3X3X9XrXuXsXuXiXqXrXtXtXuXiXiXiXaXaXaXaXaXsXsXsXsXsX",
"sXsXsXsXsXsXsXsXsXaXuXiX7X3XqX7XqXeXqX7XqXqX9XqXqXrXuXaXsXsXaX7X5X3X3X7XqX7XqX7XqXrXaXsXaXaXaXaXaXaXaXaXaXaXaXsXsXsXsXsXsXsXsXsX",
"aXaXaXaXaXaXaXaXaXaXuXiXqX3X7XqX7X9XqXeXqXeXqX7XqXuXuXaXsXsXiX7X3X5X7XqXqXqXqXqXqXuXaXsXaXsXsXsXsXsXsXsXsXsXsXaXaXaXaXaXaXaXaXaX",
"uXiXaXaXaXaXaXaXaXaXuXiXrX5XqX7X9XqX7X9X7XqX7XqX7XuXrXiXsXsXiX7X,X7XqXqX7XqX7XqX7XuXaXsXaXiXuXuXuXuXsXiXiXiXiXiXiXiXiXiXiXiXiXiX",
"9X9X9X9X9X9X9X9X9XsXsXuXiX5X5X9XqXqX9X9XeXqXqXqXqXrXuXuXsXsXiX7X,XqXqX7X7XqX7XqXqXuXaXsXaXrX7X3X3XuXiXuXeX9X9X9X9X9X9X9X9X9X9X9X",
"3X3X3X3X3X3X7X7XrXaXsXuXiXqX5XqX7XqXeXqXqXqX7XqXrXqXrXiXsXsXiX7X3X7X7XqXqX7XqX7XqXuXaXsXaX7X3X5X7XsXiXeX5X3X3X3X3X3X3X3X3X3X3X3X",
"7X9XqX7XqX7X7XrXrXaXsXuXiXrX9X7XqX7X7XqX7XrXqXrXuXrXuXiXsXsXiX7X3X7XqXrXrXrXrXuXuXuXaXsXaX3X5X7XqXsXiX9X3X3X7X7X7X7X7X7X7X7X7X7X",
"7XqX7XqX7XqXqXrXrXaXsXiXuXiX9X9XrXrXrXrXuXuXrXuXrXuXiXsXsXsXsX7XqXrXqXrXaXaXaXaXaXaXaXsXtX3X7XqXqXsXiX9X3X7X7X9X7X9X7XqX9XqX9X9X",
"7X9XqX7XqX7X7XrXuXaXsXiXuXiXtXuXuXuXuXiXiXiXaXsXsXsXsXsXsXsXsXqXrXaXaXaXsXsXsXsXsXsXsXsXtX3X7X7XqXsXiX9X3X7XqX9XqX9XqX9XeXeXqXqX",
"7XqX7XqX7XqXqXrXuXaXsXiXuXiXsXsXsXsXsXsXsXsXsXsXsXsXsXsXsXsXsXaXuXaXsXsXsXsXsXsXsXsXsXsXqX3X7X7XqXsXiXqX5XqX7X9X7X9X7XqX9XqX9X9X",
"qX7XeXeXqXqX7XrXuXaXsXaXuXuXiXaXsXsXsXsXsXsXsXsXiXiXiXiXiXiXiXqXqX9X7X7X9XqXqXeXuXsXaXtX5X3X7XqXeXsXiXqX5X7XqX9XqX9XqX9XeXeXqXqX",
"qXqXeXeXqX7XqXtXiXaXsXaXqX3X3X3X3X5X7X7XqXtXaXiXtXeX7X7X5X5X3X3X3X3X3X3X3X3X3X9XtXsXaXeX3X5X7X7XrXsXiXeX5X7X9XqX7XqX7XqXeXeXqX9X",
"qXqX7X7XqXqXqXtXiXaXsXaX3X5X7X9X9X9X7X9X9XaXuXiXeX3X,X,X3X5X7X5X5X5X5X5X5X5X5XrXuXsXaXqX3X7X9XqXrXsXiXrX5XqX7X9XqX9XqXqX7XqX7XqX",
"9X7XqXqX7XqXrXuXaXaXsXaX3X7XqX9X7X7X9X9X7XsXuXiX9X,X5XqX7XqX7X9XqX7X9X7X9XqXqXtXiXsXaXqX,X7XqX7XuXsXiXiXqXrXtXuXuXuXtXtXrXeXqXqX",
"tXtXtXtXtXuXiXaXaXaXsXaX3X7X7X7XqX7XqX7XtXsXiXiX9X,X7X7X7XqXeX7X7XqXqXqX7XqX7XuXiXsXaXqX,X7X7X9XuXsXuXsXaXaXiXiXiXiXiXiXiXuXuXuX",
"uXiXiXaXaXaXsXsXsXsXsXaX3XqX7XqX7X7XqXeXtXsXiXiX9X,XqX7XqX9X7XqXqXeXqX7X9XqXqXuXiXsXaXqX,XqX7XqXuXsXuXaXsXsXsXsXsXsXsXsXsXaXaXiX",
"sXsXsXsXsXsXsXsXsXiXiXiX3X7X9XqX7XqX7XeXtXsXaXiX9X,X9XqX7XqXqXeXqXeXqXqXqX7XqXuXiXsXaXqX,X7X7XqXuXsXuXaXaXaXaXaXaXaXsXsXsXsXsXsX",
"iXtXtXrXqX9XqXqXqXqXiXsX3X7XeX9XqX7XqXeXtXaXsXiX9X,X7XqXqXqXeXqXeXqX7XeXqXqX7XuXiXsXaXqX,X9X7X7XuXsXuXiXiXiXuXuXuXuXuXuXuXaXaXaX",
"tXqX7X3X3X3X3X3X3X7XrXsX3X7X7XqXeXqX7XqXtXaXsXiXqX3X5X9XqX7XqX7XeXeXqXeXqX7XqXuXaXsXaXqX3XqXqX7XuXsXiX7X3X3X7XqXtXuXiXiXiXiXiXuX",
"tX7X3X3X5X7X7X7X9X7XiXsX,X9X9X7XeXqX7X9XrXiXsXiXeX3X5X7XqXqXeXqXeXeX7XqX7XqXeXuXaXsXaXqX3X7X9XqXuXsXiX3XqXqX7X3X3X3X3X3X3X9XaXuX",
"tX3X7X7X7XqX7X9X7XqXrXsX,X9X7X9X7X7XqX7XrXiXsXaXuX5X,X7X7X9XqX7XqX7XeXeXqX7XrXuXaXsXaXqX3XqX7XqXuXsXiX3XqXqX7X7XqXqX7XqXqXeXaXuX",
"tX3X7X9XqX7XqX7XqX7XrXsX,X9XqX9X7XqX7XqXtXuXsXsXuX7X,X7X7X7XqXqXeXqXeXeX7XqXrXiXsXsXiXqX3X7X7XqXuXsXiX3X7X7XqXqX7X7XqX7XqXtXaXiX",
"tX3X7X9X7XqX7X7XeX7XuXsX3X7X7X7X9XqX9X7XtXuXsXsXuXqX,X5X7XqX7XqXqX9XqX7XqX7XtXiXsXsXiXqX3X7XqX7XuXsXiX3X7XqX7X7XqXqX7XqX7XtXaXiX",
"tX3X7X7XqXqX7X9X7XqXuXsX3X5XeX9XeX7X7X9XtXuXsXsXiXrX3X5X7XqXeX9XqXqX9XqX9XqXtXaXsXsXiXqX3XqX7XuXuXsXiX5X7X7X7XqX7XqXqX7X7XuXaXiX",
"tX3X7XqX7X7XqX7XqX7XuXsX5X3XqX9X7XqX9XqXtXuXsXsXiXuX7X3X7XqX7XqX7XqX7XqXqXtXuXaXsXaXiXeX7XeXuXaXaXaXiX7X7XqX7X7XqX7XqXqX7XuXaXaX",
"tX3X7X7X7XqX7X9X7XqXuXsX7X3XeX7XqXqXqX7XrXuXsXsXaXuXqX5X7XqXeXtXtXuXiXiXaXaXaXaXsXaXiXuXaXaXaXaXiXiXsXrXuXiXuXuXuXuXuXuXuXuXaXaX",
"tX3X7XqX7X7XqX7XeX7XuXsX9X3X9XeX7X7XqXqXrXuXsXsXaXuXiXqXqXtXuXiXaXsXsXsXsXsXsXsXsXaXiXuXiXiXuXuXuXuXuXsXsXsXsXsXsXsXsXsXsXsXsXaX",
"tX3X7XqXqX9X7XqX7XqXuXsXeX3X7X9X7XqXqX7XtXuXsXsXsXiXiXaXsXsXsXsXsXsXsXsXsXsXsXsXsXaXiXuXuXiXiXiXiXiXiXiXiXiXaXaXaXaXaXaXaXaXaXaX",
"tX3X7X7X7XqX9X7X9X7XuXsXuX,XqX7XqXqX7XqXtXuXsXsXsXiXiXiXaXaXaXaXaXiXiXiXiXiXiXiXiXiXiXuXuXeXeXeXeXeXeXeXeXeXeXeXeXeXeXeXeXeXaXuX",
"tX3X7XqXqX7XqX7XqXrXuXsXiX,X7XqXqXeXqX7XrXuXsXsXsXaXtXeXeXeXeXeXeXeXeXeXeXeXeXeXqXqX9X9X7X7X7X5X5X5X5X5X5X7X5X5X5X5X5X5X5XeXaXuX",
"tX3X7X7X7X9X7XqX7XuXsXsXiX,X7XqX7XqXqXqXtXuXsXsXsXaXeX5X5X5X5X5X5X5X5X5X5X5X5X5X5X5X3X3X3X,X,X,X,X,X,X,X,X,X,X,X3X3X3X3X9XtXsXiX",
"tX3X7X9X7XqX7X7XqXuXsXsXiX,XqX7XeX9XqX7XtXuXaXsXsXsXeX5X3X,X,X,X,X,X,X3X,X,X3X,X,X,X,X,X,X3X3X3X5X7X5X5X5X7X5X5X7X5X5X7XeXuXsXiX",
"tX5X7X7XqX7XqXqXqXuXsXaXiX3X7X7XqX7XqXqXtXuXaXsXsXsXeX5X3X7X5X5X5X5X5X7X5X5X7X5X5X5X7X7X7X9X9XqXqX7XqX7XqXqXqX7XqX7XqX7XrXuXsXaX",
"iX5XqXqX7XqXrXrXrXuXsXaXiX3XqXqX7XqX7XqXrXuXaXsXsXsXtX5X3X7XqXqXqXqXqXqX7XqX7X7X9XqX9X7X7X7X9XeX9XqX7X7X9XqX7XqX7X7X7XqXrXuXsXaX",
"iX7X7X7X7XqXuXuXuXsXsXaXiX7X7XqXqX7XqXqXrXuXaXsXsXsXiX5X3X5XqX9XqX7XqX7XqX9X7XqXqX9X7X7XqX9XqX9XqXqXeXqX9X9XqX7XqX7XqX7XrXuXsXaX",
"iXeXeXeXuXuXuXuXuXsXsXaXiX9X9X7XqXqXqXrXtXuXaXsXsXsXsX7X3X3X7X7XqXqXqXqXeXqXqX7XqX9XqX7X9XeXqXqX7XqXqX7XqXeXeXqXeX9XqX9XrXuXsXaX",
"iXaXsXsXsXuXuXuXuXsXaXiXiXeXtXtXtXtXtXtXuXuXaXsXsXsXsX7X3X3XqXqX7XqX7XqXqX7XqXeXeX9X9XqX7XqX7X9XqX7XqXqXeXqXqXqX7XqXeXeXrXuXsXaX",
"uXuXuXiXaXsXsXsXsXsXaXiXaXaXaXaXaXaXaXaXaXaXaXsXsXsXsXqX3X7X7XqXqX7XqX7XeXqXqX9XeX9XqX9XeX7XqXqXeXqXqXqXqX7XqXeXqX9XeXeXrXuXsXaX",
"iXiXiXiXiXiXiXsXsXsXaXiXaXaXsXsXsXsXsXsXsXsXsXsXsXsXsXqX9XrXrXrXrXrXrXrX7XqX7X7XqXqXeXqXqXqXeXqXqX7XqX7XqXqX7XqXqXqXqX9XrXuXsXaX",
"iXeX7X7X7X7X9XqXtXiXiXuXaXaXsXsXsXsXsXsXsXsXsXsXsXsXaXuXiXaXaXsXsXsXsXsXuXrXrXeXqXeXeXeXeXeXeXeXeXeXeXeXeXeXeXeXeXeXeXeXtXuXsXaX",
"iX7X5X3X3X3X3X3X5X7X7XqXrXtXuXiXaXaXaXaXaXaXaXaXaXaXiXuXiXiXaXaXaXaXaXaXsXiXuXuXuXuXuXuXuXuXuXuXuXuXuXuXuXuXuXuXuXuXuXuXuXsXsXaX",
"iX7X3X7X7XqX5X3X3X3X3X5X7X7X7X7X7X7X7X7XqXqXqXeXeXrXtXtXuXuXiXiXiXiXiXaXaXsXsXsXsXsXsXsXsXsXsXsXsXsXsXsXsXsXsXsXsXsXsXsXsXsXaXiX",
"iX7X3X7X7X7X7X7XqX7X5X3X3X3X3X3X3X3X3X3X3X3X3X3X3X5X5X7X7X7X7X7XqXiXuXiXaXaXaXaXaXaXaXaXaXsXsXsXsXsXsXsXsXsXsXsXsXsXsXsXaXaXiXiX",
"iX7X3X7XqX7XeXeX7X9XqXeX7XqX7XqX7XqX7X7XqX7XqX7X7X7X5X3X3X3X3X5XeXaXiXuXiXiXiXaXaXaXaXaXaXaXaXaXaXaXaXaXaXaXaXaXaXaXaXaXiXiXiXuX",
"iX7X3X7X7X7X9X7XqX9XqX9X7XqXqX7XeXeXqX7XeXqXqXqX7XqX7XqX7X7X7XeXtXsXaXuXiX7X3X3X7XeXiXiXiXuXuXuXiXiXiXiXiXiXiXiXiXiXiXiXuXuXuXuX",
"iX7X5X7XqX7XeXeX9X7XqX7X7X9XqXeX7XeXqXeX9XqX7XqX7XqX7XqX7X7X7XtXuXsXaXiXiX3X7X7X3X3X3X3X7XuXuXiX7X3X3X3X3X3X3X3X3X5X7X9XeXiXiXuX",
"iX7XqXtXtXtXtXtXtXtXtXtXtXtXtXtXtXtXtXtXtXtXtXtXtXtXtXtXtXtXtXuXuXaXsXaXiX3X7X7X7X7X7X7X7XtXuXeX3X7X7X7XqX7XqX7X9X7XqX7X3X9XsXuX",
"iXqXtXaXaXaXaXaXaXaXaXaXaXaXaXaXaXaXaXaXaXaXaXaXaXaXaXaXaXaXaXaXaXaXsXsXiX7X7X7X7X9XtX9XqXtXiX7X7XqX7XqX7X7X7XqX7XqX7XqX7XuXsXuX",
"iXaXsXsXsXsXsXsXsXsXsXsXsXsXsXsXsXsXsXsXsXsXsXsXsXsXsXsXsXsXsXsXsXsXsXsXiXaXiXaXuXtXtXtXtXtXiX3X7X9X9X7X7X9X9X7X9X7X7XqXqXuXsXuX",
"uXiXaXaXaXsXsXsXsXsXsXsXsXsXsXsXsXsXsXsXsXsXsXsXsXsXsXsXsXsXsXsXsXsXsXsXaXuXuXaXaXsXsXsXsXsXaXuXuXuXuXuXuXuXuXuXuXuXuXuXuXuXsXuX",
"uXuXuXuXiXiXiXiXiXiXiXiXaXaXaXaXaXaXaXaXaXaXaXaXaXaXaXaXaXaXaXaXaXaXaXaXaXuXuXuXuXaXaXaXaXaXaXuXuXsXsXsXsXsXsXsXsXsXsXsXsXsXsXuX",
"aXaXaXaXaXaXaXaXaXaXaXaXaXaXaXaXaXaXaXaXaXaXaXaXaXaXaXaXaXaXaXaXaXaXaXaXaXaXaXaXaXaXaXaXaXaXaXaXaXaXaXaXaXaXaXaXaXaXaXaXaXaXaXaX"
};
